<svg width="64" height="64" viewBox="0 0 64 64" fill="none" xmlns="http://www.w3.org/2000/svg">
<circle cx="32" cy="32" r="32" fill="#E9EEF5"/>
<path d="M11.5541 30.2066C9.88371 32.6028 11.3801 31.8996 12.337 31.2484C15.4254 28.7742 21.2107 24.7372 19.6448 28.3835C18.2093 36.0667 18.3398 38.541 19.2533 46.6149C21.2368 52.8657 22.8636 50.6953 23.4291 48.8287C26.2565 42.7516 31.9113 31.0401 31.9113 32.8111C31.9113 35.0249 31.2588 41.4059 33.2162 45.5731C35.1737 49.7403 38.5665 54.5586 39.741 46.094C40.6806 39.3223 46.2223 27.1247 48.8757 21.8723C51.7901 17.1842 56.1573 9.34473 50.3111 15.4913C43.0034 23.1745 42.3509 26.6906 40.9155 28.9044C39.48 31.1182 36.2176 45.1824 35.8262 38.0201C35.4347 30.8578 35.9566 33.4623 36.2176 26.1697C36.4786 18.8771 32.8248 25.2581 32.5638 25.3884C32.3028 25.5186 25.256 37.6294 24.4731 39.713C23.8467 41.3799 23.5161 40.5812 23.4291 39.9735V38.8014C23.4291 24.4768 30.0844 16.6633 24.8646 19.0074C19.6448 21.3514 13.642 27.2115 11.5541 30.2066Z" fill="#2B6DFF" stroke="black" stroke-opacity="0.48"/>
</svg>
